<svg id="Line" xmlns="http://www.w3.org/2000/svg" viewBox="0 0 64 64"><title>1</title><path d="M46.90527,45.78223a1.00226,1.00226,0,0,0,1.23535-.68848c5.69155-24.47231-31.61561-29.98169-32.918-4.59422a16.82,16.82,0,0,0,.63725,4.59422,1,1,0,0,0,1.92383-.54687,14.82085,14.82085,0,0,1-.561-4.04786C18.37534,18.13055,51.233,22.99967,46.21678,44.54725A.99961.99961,0,0,0,46.90527,45.78223Z"/><path d="M31,29.042a.99973.99973,0,0,0,1,1,10.37988,10.37988,0,0,1,7.45508,3.13086,1.00011,1.00011,0,0,0,1.42573-1.40238A12.36388,12.36388,0,0,0,32,28.042.99974.99974,0,0,0,31,29.042Z"/><path d="M32,13.86133a.99973.99973,0,0,0-1,1v5.916a1,1,0,0,0,2,0v-5.916A.99973.99973,0,0,0,32,13.86133Z"/><path d="M14.91943,31.63867a1.00586,1.00586,0,0,0,.50092-1.86622l-5.124-2.959a1.00035,1.00035,0,0,0-1,1.73245C9.49657,28.6029,14.82256,31.892,14.91943,31.63867Z"/><path d="M49.5791,31.50488l5.124-2.959a1.00036,1.00036,0,0,0-1.00006-1.73239l-5.124,2.95895A1.00036,1.00036,0,0,0,49.5791,31.50488Z"/><path d="M21.273,23.91992a1.00034,1.00034,0,0,0,1.73239-1.00005l-1.479-2.56245a1.00035,1.00035,0,0,0-1.73239,1Z"/><path d="M9.31982,41.499h2.9585a1.00018,1.00018,0,0,0-.00006-2H9.31982A1.00019,1.00019,0,0,0,9.31982,41.499Z"/><path d="M51.72168,41.499h2.958a1.00018,1.00018,0,0,0-.00006-2h-2.958A1.00019,1.00019,0,0,0,51.72168,41.499Z"/><path d="M42.47363,20.35742l-1.47851,2.5625a1.00035,1.00035,0,0,0,1.73244.99995l1.47849-2.56245A1.00035,1.00035,0,0,0,42.47363,20.35742Z"/><path d="M59,48.13867H5a1.00012,1.00012,0,0,0,.00006,2H59A1.00012,1.00012,0,0,0,59,48.13867Z"/></svg>