<svg id="line" xmlns="http://www.w3.org/2000/svg" viewBox="0 0 64 64"><defs><style>.cls-1{fill:#231f20;}</style></defs><path class="cls-1" d="M60.09314,39.96246a1.00041,1.00041,0,0,0-1.59412-.81252C35.93007,55.62281,8.20066,28.53576,24.12811,5.59062A1.01615,1.01615,0,0,0,23.829,4.15453a1.09523,1.09523,0,0,0-.8436-.0964,28.47427,28.47427,0,0,0-10.89649,6.99509c-11.04756,10.85723-10.8194,30.15956.48763,40.749C27.58823,66.7322,53.96679,60.25059,60.09314,39.96246Zm-8.19959,9.956C42.03,60.439,24.11294,60.64978,13.97266,50.37129.76785,37.72413,4.35582,15.13416,20.78534,7.16009a26.24221,26.24221,0,0,0,36.223,35.37256A26.55813,26.55813,0,0,1,51.89355,49.91846Z"/><path class="cls-1" d="M35.1543,22.47021,34.002,29.188a1,1,0,0,0,1.45118,1.0542l6.03222-3.17188,6.03223,3.17188A1.0069,1.0069,0,0,0,48.96872,29.188l-1.15134-6.71775,4.88086-4.7583a1,1,0,0,0-.55469-1.70556l-6.74511-.98-3.0166-6.11182a1.04089,1.04089,0,0,0-1.793,0l-3.0166,6.11182-6.74512.98a1.00027,1.00027,0,0,0-.55469,1.706Zm3.22558-5.54a.99882.99882,0,0,0,.75293-.54737l2.35254-4.76611,2.35254,4.76611a.99882.99882,0,0,0,.75293.54737l5.26074.76416-3.80664,3.71093a.99981.99981,0,0,0-.28711.88477l.89746,5.23877-4.7041-2.47363a1.00242,1.00242,0,0,0-.93164,0l-4.7041,2.47363L37.21387,22.29a1.00116,1.00116,0,0,0-.28711-.88525l-3.80664-3.71045Z"/></svg>