<?xml version="1.0" encoding="utf-8"?>
<!-- Generator: Adobe Illustrator 22.0.1, SVG Export Plug-In . SVG Version: 6.00 Build 0)  -->
<svg version="1.1" id="Layer_1" xmlns="http://www.w3.org/2000/svg" xmlns:xlink="http://www.w3.org/1999/xlink" x="0px" y="0px"
	 viewBox="0 0 68 68" style="enable-background:new 0 0 68 68;" xml:space="preserve">
<g>
	<g>
		<path d="M54.2087631,57.1995392H12.3918686c-5.72998,0-10.3920898-4.6621094-10.3920898-10.3920898
			c0-5.1958008,3.9233398-9.5820313,8.9619141-10.2856445c-0.1469727-0.8764648-0.2211914-1.7719727-0.2211914-2.6743164
			c0-9.0273438,7.3442383-16.371582,16.371582-16.371582c5.03125,0,9.7080078,2.2685547,12.8310547,6.2236328
			c1.2700195,1.6040039,2.2109375,3.3955078,2.8041992,5.3374023c0.6733398-0.168457,1.3691406-0.253418,2.0791016-0.253418
			c4.4326172,0,8.0957031,3.362793,8.5786133,7.6733398c2.8837891-0.2202148,5.7138672,0.7587891,7.8291016,2.7016602
			c2.1396484,1.9609375,3.3666992,4.7495117,3.3666992,7.6489258C64.600853,52.5374298,59.9387436,57.1995392,54.2087631,57.1995392
			z M27.1120834,19.4759064c-7.9243164,0-14.371582,6.4472656-14.371582,14.371582
			c0,1.1381836,0.1342773,2.2617188,0.3989258,3.3398438c0.0722656,0.2944336,0.0068359,0.6054688-0.1772461,0.8461914
			c-0.1845703,0.2407227-0.4677734,0.3847656-0.7709961,0.3916016c-4.5166011,0.1035156-8.1914063,3.8637695-8.1914063,8.3823242
			c0,4.6274414,3.7646484,8.3920898,8.3920898,8.3920898h41.8168945c4.6274414,0,8.3920898-3.7646484,8.3920898-8.3920898
			c0-2.340332-0.9907227-4.5913086-2.71875-6.175293c-1.9326172-1.7753906-4.6342773-2.5517578-7.2368164-2.059082
			c-0.2929688,0.0546875-0.5952148-0.0219727-0.8242188-0.2124023c-0.2294922-0.1899414-0.3623047-0.472168-0.3623047-0.7700195
			v-0.1650391c0-3.6625977-2.9750977-6.6420898-6.6323242-6.6420898c-0.8354492,0-1.6435547,0.152832-2.4013672,0.4541016
			c-0.2705078,0.1074219-0.574707,0.0917969-0.831543-0.0424805c-0.2583008-0.1342773-0.4448242-0.3740234-0.5112305-0.6572266
			c-0.4853516-2.0581055-1.3964844-3.9418945-2.7080078-5.5981445
			C35.632103,21.4671173,31.5276108,19.4759064,27.1120834,19.4759064z"/>
	</g>
	<g>
		<path d="M36.1076889,27.7298126c-0.2954102,0-0.5878906-0.1303711-0.7851563-0.3798828
			c-2.0004883-2.5327148-4.9931641-3.9848633-8.2109375-3.9848633c-0.5522461,0-1-0.4477539-1-1s0.4477539-1,1-1
			c3.8334961,0,7.3979492,1.7294922,9.7802734,4.7446289c0.3422852,0.4335938,0.2685547,1.0625-0.1645508,1.4047852
			C36.5437241,27.6595001,36.3249741,27.7298126,36.1076889,27.7298126z"/>
	</g>
	<g>
		<path d="M12.3918686,53.3108673c-3.5859375,0-6.5029292-2.9174805-6.5029292-6.503418
			c0-3.5004883,2.8466792-6.4135742,6.3452144-6.4936523c0.5419922-0.0444336,1.0097656,0.4238281,1.0224609,0.9765625
			c0.0126953,0.5522461-0.4243164,1.0102539-0.9765625,1.0224609c-2.4213867,0.0556641-4.3911128,2.0717773-4.3911128,4.4946289
			c0,2.4833984,2.0200191,4.503418,4.5029292,4.503418c0.5522461,0,1,0.4477539,1,1S12.9441147,53.3108673,12.3918686,53.3108673z"
			/>
	</g>
	<g>
		<path d="M54.2087631,53.3108673c-0.5522461,0-1-0.4477539-1-1s0.4477539-1,1-1c2.4833984,0,4.503418-2.0200195,4.503418-4.503418
			c0-1.2714844-0.519043-2.4477539-1.4609375-3.3120117c-0.4072266-0.3730469-0.4345703-1.0058594-0.0610352-1.4125977
			c0.3735352-0.4077148,1.0053711-0.4350586,1.4125977-0.0610352c1.3603516,1.2475586,2.109375,2.9472656,2.109375,4.7856445
			C60.7121811,50.3933868,57.7947006,53.3108673,54.2087631,53.3108673z"/>
	</g>
	<g>
		<path d="M60.5578842,40.8948517c-0.2475586,0-0.4897461-0.0922852-0.6762695-0.2636719
			c-1.9321289-1.7744141-4.6337891-2.5507813-7.2363281-2.0581055c-0.2929688,0.0546875-0.5952148-0.0219727-0.8242188-0.2124023
			c-0.2294922-0.1899414-0.3623047-0.472168-0.3623047-0.7700195v-0.1650391c0-3.6625977-2.9750977-6.6420898-6.6323242-6.6420898
			c-0.8354492,0-1.6435547,0.152832-2.4013672,0.4541016c-0.2705078,0.1074219-0.574707,0.0917969-0.831543-0.0424805
			c-0.2583008-0.1342773-0.4448242-0.3740234-0.5112305-0.6572266c-0.4853516-2.0581055-1.3964844-3.9418945-2.7080078-5.5981445
			c-0.1665039-0.2104492-0.2416992-0.4790039-0.2080078-0.7456055c0.0336914-0.2661133,0.1728516-0.5078125,0.3862305-0.6704102
			c2.5976563-1.9785156,5.6987305-3.0239258,8.9672852-3.0239258c8.1694336,0,14.815918,6.6464844,14.815918,14.815918
			c0,1.6928711-0.2807617,3.3457031-0.8349609,4.9125977c-0.1118164,0.3164063-0.3754883,0.5556641-0.7011719,0.6367188
			C60.7195053,40.8850861,60.6384506,40.8948517,60.5578842,40.8948517z M54.2087631,36.4256134
			c2.0874023,0,4.1000977,0.6196289,5.8037109,1.7680664c0.2148438-0.9350586,0.3232422-1.8984375,0.3232422-2.8779297
			c0-7.0668945-5.7490234-12.815918-12.815918-12.815918c-2.4960938,0-4.878418,0.7045898-6.9482422,2.046875
			c0.956543,1.3803711,1.6850586,2.8837891,2.1757813,4.4902344c0.6733398-0.168457,1.3691406-0.253418,2.0791016-0.253418
			c4.4326172,0,8.0957031,3.362793,8.5786133,7.6733398C53.6731186,36.4363556,53.941185,36.4256134,54.2087631,36.4256134z"/>
	</g>
	<g>
		<g>
			<path d="M44.272728,20.2024689c-0.237793,0-0.4765625-0.0844727-0.6674805-0.2558594l-3.1523438-2.8300781
				c-0.4111328-0.3691406-0.4453125-1.0014648-0.0761719-1.4121094c0.3671875-0.4111328,1-0.4458008,1.4121094-0.0761719
				l3.1523438,2.8300781c0.4111328,0.3691406,0.4453125,1.0014648,0.0761719,1.4121094
				C44.8200912,20.0906525,44.547142,20.2024689,44.272728,20.2024689z"/>
		</g>
		<g>
			<path d="M50.3044662,17.0027618c-0.4931641,0-0.9223633-0.3647461-0.9897461-0.8671875l-0.5634766-4.203125
				c-0.0732422-0.5473633,0.3110352-1.050293,0.8583984-1.1240234c0.5478516-0.0683594,1.0507813,0.3105469,1.1240234,0.8583984
				l0.5634766,4.203125c0.0732422,0.5473633-0.3110352,1.050293-0.8583984,1.1240234
				C50.3938217,16.9998322,50.3488998,17.0027618,50.3044662,17.0027618z"/>
		</g>
		<g>
			<path d="M56.7185287,18.3333282c-0.1757813,0-0.3540039-0.0463867-0.515625-0.1435547
				c-0.4726563-0.2851563-0.625-0.8999023-0.3398438-1.3730469l2.1894531-3.6318359
				c0.284668-0.4726563,0.8984375-0.625,1.3730469-0.3398438c0.4726563,0.2851563,0.625,0.8999023,0.3398438,1.3730469
				l-2.1894531,3.6318359C57.3879623,18.160965,57.0573959,18.3333282,56.7185287,18.3333282z"/>
		</g>
		<g>
			<path d="M60.9817123,23.669754c-0.418457,0-0.8085938-0.2651367-0.9487305-0.6835938
				c-0.1748047-0.5239258,0.1079102-1.090332,0.6318359-1.265625l4.0180664-1.3422852
				c0.5219727-0.1733398,1.090332,0.1079102,1.265625,0.6318359c0.1748047,0.5239258-0.1079102,1.090332-0.6318359,1.265625
				l-4.0180664,1.3422852C61.1936264,23.6526642,61.0866928,23.669754,60.9817123,23.669754z"/>
		</g>
	</g>
</g>
</svg>
