<svg id="Line" xmlns="http://www.w3.org/2000/svg" viewBox="0 0 64 64"><defs><style>.cls-1{fill:#231f20;}</style></defs><title>1</title><path class="cls-1" d="M18.03625,19.54224a1.00012,1.00012,0,0,0,1.49219,1.332,16.65188,16.65188,0,1,1-3.77392,7.18506,1.00014,1.00014,0,1,0-1.94434-.46973,18.72441,18.72441,0,1,0,4.22607-8.04736Z"/><path class="cls-1" d="M32.71106,19.21069a1,1,0,0,0-.10938,1.99707A10.854,10.854,0,0,1,41.587,27.00415a1.00027,1.00027,0,0,0,1.77343-.92578A12.86534,12.86534,0,0,0,32.71106,19.21069Z"/><circle class="cls-1" cx="43.80865" cy="31.99976" r="1"/><circle class="cls-1" cx="16.40167" cy="23.61407" r="1"/><path class="cls-1" d="M33.00012,8.72437V5.40552a1,1,0,0,0-2,0V8.72437a1,1,0,1,0,2,0Z"/><path class="cls-1" d="M23.09485,11.50024a1.00107,1.00107,0,0,0,.92334-1.3833l-2.27783-5.5a1,1,0,0,0-1.84766.76563l2.27783,5.5A1.001,1.001,0,0,0,23.09485,11.50024Z"/><path class="cls-1" d="M12.485,13.89868l2.34863,2.34863a.99989.99989,0,0,0,1.41406-1.41406l-2.34863-2.34863A.99989.99989,0,1,0,12.485,13.89868Z"/><path class="cls-1" d="M4.61731,21.74l5.5,2.27783a1,1,0,1,0,.76562-1.84765l-5.5-2.27784A1,1,0,1,0,4.61731,21.74Z"/><path class="cls-1" d="M5.40588,30.99976a1,1,0,0,0,0,2H8.72473a1,1,0,0,0,0-2Z"/><path class="cls-1" d="M5.00061,44.18384a1.00048,1.00048,0,0,0,.38232-.07666l5.5-2.27783a1,1,0,1,0-.76562-1.84766l-5.5,2.27783a1.00032,1.00032,0,0,0,.3833,1.92432Z"/><path class="cls-1" d="M13.192,51.80786a.99672.99672,0,0,0,.707-.293l2.34863-2.34863a.99989.99989,0,0,0-1.41406-1.41406L12.485,50.10083a1,1,0,0,0,.707,1.707Z"/><path class="cls-1" d="M21.74036,59.38257l2.27783-5.5a1,1,0,0,0-1.84766-.76563l-2.27783,5.5a1,1,0,1,0,1.84766.76563Z"/><path class="cls-1" d="M33.00012,55.27515a1,1,0,0,0-2,0V58.594a1,1,0,1,0,2,0Z"/><path class="cls-1" d="M44.10754,58.61694l-2.27832-5.5a1,1,0,0,0-1.84765.76563l2.27832,5.5a1,1,0,1,0,1.84765-.76563Z"/><path class="cls-1" d="M51.51575,50.10083,49.16711,47.7522a.99989.99989,0,0,0-1.41406,1.41406l2.34863,2.34863a.99989.99989,0,1,0,1.41407-1.41406Z"/><path class="cls-1" d="M59.38293,42.25952l-5.5-2.27783a1,1,0,1,0-.76562,1.84766l5.5,2.27783a1,1,0,1,0,.76562-1.84766Z"/><path class="cls-1" d="M58.59485,32.99976a1,1,0,0,0,0-2H55.27551a1,1,0,1,0,0,2Z"/><path class="cls-1" d="M58.61731,19.89233l-5.5,2.27784a1,1,0,1,0,.76562,1.84765l5.5-2.27783a1,1,0,1,0-.76562-1.84766Z"/><path class="cls-1" d="M49.16711,16.24731l2.34864-2.34863a.99989.99989,0,1,0-1.41407-1.41406l-2.34863,2.34863a.99989.99989,0,1,0,1.41406,1.41406Z"/><path class="cls-1" d="M40.9054,11.50024a1.0008,1.0008,0,0,0,.92382-.61767l2.27832-5.5a1,1,0,1,0-1.84765-.76563l-2.27832,5.5a1.00106,1.00106,0,0,0,.92383,1.3833Z"/></svg>